<svg xmlns="http://www.w3.org/2000/svg" version="1.1" viewBox="-5.0 -10.0 110.0 135.0">
 <path d="m77.168 16.262h-16.641c-0.074219-0.76953 0.10938-3.7344-0.089844-4.4492-0.50391-3.1445-3.2344-5.5625-6.5234-5.5625h-7.832c-3.293 0-6.0195 2.418-6.5234 5.5625-0.16016 0.69922-0.066406 3.6836-0.089844 4.4492h-16.641c-2.0312 0-3.6797 1.6445-3.6797 3.6641v5.5156c0 2.0156 1.6445 3.6641 3.6797 3.6641 2.8125 0.007812 51.57-0.003907 54.34 0 2.0312 0 3.6797-1.6445 3.6797-3.6641v-5.5156c0-2.0156-1.6445-3.6641-3.6797-3.6641zm-33.25-3.3984c0.007812-1.1719 0.94922-2.168 2.1641-2.1641h7.832c1.2148-0.003907 2.1562 0.99219 2.1641 2.1641v3.3945h-12.16z"/>
 <path d="m23.379 33.555 3.3086 51.152c0.29688 5.0742 4.5234 9.0469 9.6094 9.0469h27.406c5.0859 0 9.3125-3.9727 9.6094-9.0469l3.3086-51.152zm34.645 48.539 2.7578-40.25c0.29297-2.9492 4.5312-2.625 4.4336 0.29688l-2.8164 41.109c-0.26172 2.9062-4.5703 2.625-4.4336-0.3125 0 0 0.058594-0.84375 0.058594-0.84375zm-10.246-40.102c0.042968-2.9102 4.4023-2.9336 4.4492 0v41.094c-0.042968 2.9102-4.4023 2.9336-4.4492 0v-41.094zm-12.934-0.47656c0.51562-2.4609 4.1953-2.2461 4.375 0.32812l2.7578 40.25 0.058594 0.84375c0.14062 2.9141-4.1641 3.2344-4.4336 0.3125l-2.8164-41.109c-0.015625-0.22266 0-0.42969 0.058594-0.62109z"/>
</svg>